<?xml version="1.0" standalone="no"?>
<!DOCTYPE svg PUBLIC "-//W3C//DTD SVG 20010904//EN"
 "http://www.w3.org/TR/2001/REC-SVG-20010904/DTD/svg10.dtd">
<svg version="1.0" xmlns="http://www.w3.org/2000/svg"
 width="512.000000pt" height="512.000000pt" viewBox="0 0 512.000000 512.000000"
 preserveAspectRatio="xMidYMid meet">

<g transform="translate(0.000000,512.000000) scale(0.100000,-0.100000)"
fill="#7510f7" stroke="none">
<path d="M2421 4945 c-177 -39 -347 -171 -429 -335 -57 -113 -76 -206 -68
-335 l5 -100 -202 -73 c-111 -40 -236 -86 -278 -102 l-77 -28 -50 73 c-118
170 -318 275 -522 275 -348 0 -640 -292 -640 -640 0 -275 188 -528 455 -613
100 -31 282 -31 374 2 35 12 67 19 71 14 5 -4 72 -115 149 -247 l142 -238
-127 -197 c-70 -108 -132 -202 -138 -208 -9 -10 -27 -7 -85 13 -98 34 -228 42
-331 20 -292 -61 -510 -329 -510 -626 0 -275 188 -528 455 -613 55 -17 94 -22
185 -22 134 0 215 21 319 82 64 38 163 126 195 173 l16 25 300 -150 300 -150
-6 -100 c-8 -129 11 -222 68 -335 49 -98 147 -204 240 -258 252 -149 568 -111
772 93 123 122 183 253 193 420 7 116 -14 215 -66 318 l-39 77 360 378 c198
207 389 406 424 442 l64 65 27 -18 c96 -63 244 -107 355 -107 274 1 527 189
611 455 31 99 31 271 0 370 -32 100 -87 189 -168 270 -205 206 -529 243 -778
89 l-59 -37 -431 431 -430 430 31 49 c45 70 69 133 88 225 90 443 -318 839
-765 743z m254 -160 c256 -67 415 -329 350 -578 -45 -173 -178 -307 -350 -352
-250 -65 -513 94 -580 350 -89 342 238 669 580 580z m-1760 -640 c256 -67 415
-329 350 -578 -45 -173 -178 -307 -350 -352 -251 -65 -513 94 -580 350 -89
343 237 669 580 580z m1127 -195 c25 -36 58 -76 72 -89 14 -14 26 -29 26 -34
0 -7 -322 -514 -347 -547 -6 -7 -383 184 -383 195 0 5 7 44 16 85 14 67 16
201 3 248 -4 14 551 225 562 213 3 -3 26 -35 51 -71z m1342 -569 l428 -428
-40 -67 c-22 -36 -46 -87 -53 -112 l-14 -46 -54 5 c-30 3 -143 18 -251 33
l-197 27 -7 67 c-30 323 -311 580 -636 580 -96 0 -194 -24 -290 -71 -68 -34
-101 -59 -167 -126 l-82 -84 -41 21 c-24 12 -40 27 -37 34 7 17 316 497 331
513 9 10 27 7 84 -13 175 -60 398 -32 549 70 20 14 40 26 43 26 3 0 198 -193
434 -429z m-1864 -151 c134 -67 179 -94 173 -104 -4 -7 -62 -95 -127 -195
l-119 -182 -123 208 c-68 114 -124 211 -124 216 0 4 17 23 39 42 21 19 49 51
62 70 13 19 27 35 32 35 4 0 88 -41 187 -90z m1155 35 c237 -62 393 -291 358
-529 -28 -194 -168 -351 -358 -401 -251 -65 -513 94 -580 350 -89 343 237 669
580 580z m-725 -260 c0 -5 -7 -42 -15 -80 -60 -284 84 -571 350 -700 39 -18
98 -39 133 -46 l62 -13 0 -366 0 -366 -60 -12 c-33 -7 -81 -22 -107 -33 -25
-11 -47 -18 -48 -17 -1 2 -165 277 -363 611 -331 557 -361 611 -349 631 6 13
75 120 152 238 l139 216 53 -26 c29 -15 53 -31 53 -37z m2485 20 c172 -45 305
-179 350 -352 65 -249 -94 -511 -350 -578 -251 -65 -513 94 -580 350 -89 343
237 669 580 580z m-954 -431 l199 -28 0 -35 c1 -95 48 -237 110 -327 l32 -46
-34 -36 c-71 -76 -703 -739 -752 -789 l-51 -53 -50 36 c-67 49 -158 90 -233
105 l-62 13 0 366 0 366 62 13 c129 27 270 114 353 218 48 61 115 187 115 218
0 21 8 21 311 -21z m-1704 -714 c182 -305 335 -565 342 -578 11 -20 8 -28 -28
-69 -23 -25 -53 -65 -68 -89 -16 -24 -31 -44 -36 -44 -7 0 -568 278 -576 286
-2 2 4 39 13 84 9 44 16 106 16 138 -1 142 -66 308 -166 420 -31 34 -54 68
-51 75 8 22 218 340 221 336 2 -2 152 -254 333 -559z m-862 185 c172 -45 305
-179 350 -352 65 -249 -94 -511 -350 -578 -251 -65 -513 94 -580 350 -89 343
237 669 580 580z m1760 -800 c256 -67 415 -329 350 -578 -67 -258 -329 -417
-578 -352 -257 67 -417 329 -352 578 67 258 329 417 580 352z"/>
</g>
</svg>
